<?xml version="1.0" encoding="UTF-8" standalone="no"?>
<!-- Created with Inkscape (http://www.inkscape.org/) -->

<svg
   xmlns:dc="http://purl.org/dc/elements/1.1/"
   xmlns:cc="http://creativecommons.org/ns#"
   xmlns:rdf="http://www.w3.org/1999/02/22-rdf-syntax-ns#"
   xmlns:svg="http://www.w3.org/2000/svg"
   xmlns="http://www.w3.org/2000/svg"
   xmlns:sodipodi="http://sodipodi.sourceforge.net/DTD/sodipodi-0.dtd"
   xmlns:inkscape="http://www.inkscape.org/namespaces/inkscape"
   width="10.16mm"
   height="128.5mm"
   viewBox="0 0 10.159999 128.5"
   version="1.1"
   id="svg85367"
   inkscape:version="0.92.4 (5da689c313, 2019-01-14)"
   sodipodi:docname="CB-1-panel.svg">
  <defs
     id="defs85361">
    <marker
       id="Arrow2Sstart"
       inkscape:isstock="true"
       inkscape:stockid="Arrow2Sstart"
       orient="auto"
       refX="0"
       refY="0"
       style="overflow:visible">
      <path
         d="M 8.72,4.03 -2.21,0.02 8.72,-4 c -1.75,2.37 -1.74,5.62 0,8.03 z"
         id="Arrow2SstartPath"
         style="fill:#000000;fill-opacity:1;stroke:#000000;stroke-opacity:1"
         transform="matrix(0.3,0,0,0.3,-0.69,0)"
         inkscape:connector-curvature="0" />
    </marker>
    <marker
       id="Arrow2Send"
       inkscape:isstock="true"
       inkscape:stockid="Arrow2Send"
       orient="auto"
       refX="0"
       refY="0"
       style="overflow:visible">
      <path
         d="M 8.72,4.03 -2.21,0.02 8.72,-4 c -1.75,2.37 -1.74,5.62 0,8.03 z"
         id="Arrow2SendPath"
         style="fill:#000000;fill-opacity:1;stroke:#000000;stroke-opacity:1"
         transform="matrix(-0.3,0,0,-0.3,0.69,0)"
         inkscape:connector-curvature="0" />
    </marker>
  </defs>
  <sodipodi:namedview
     id="base"
     pagecolor="#ffffff"
     bordercolor="#666666"
     borderopacity="1.0"
     inkscape:pageopacity="0.0"
     inkscape:pageshadow="2"
     inkscape:zoom="2.3639198"
     inkscape:cx="95.943488"
     inkscape:cy="244.26813"
     inkscape:document-units="mm"
     inkscape:current-layer="layer2"
     showgrid="false"
     fit-margin-top="0"
     fit-margin-left="0"
     fit-margin-right="0"
     fit-margin-bottom="0"
     units="px"
     inkscape:window-width="3840"
     inkscape:window-height="2035"
     inkscape:window-x="-13"
     inkscape:window-y="-13"
     inkscape:window-maximized="1"
     inkscape:snap-bbox="true"
     inkscape:bbox-nodes="true"
     inkscape:object-nodes="true"
     inkscape:snap-page="true"
     inkscape:object-paths="false"
     inkscape:snap-bbox-edge-midpoints="false"
     inkscape:bbox-paths="false"
     inkscape:snap-bbox-midpoints="true"
     inkscape:snap-intersection-paths="false"
     inkscape:snap-smooth-nodes="false"
     inkscape:snap-midpoints="false"
     inkscape:snap-object-midpoints="true"
     inkscape:snap-center="false"
     inkscape:snap-others="true"
     showguides="true"
     inkscape:guide-bbox="true"
     inkscape:snap-global="true"
     inkscape:snap-nodes="true" />
  <metadata
     id="metadata85364">
    <rdf:RDF>
      <cc:Work
         rdf:about="">
        <dc:format>image/svg+xml</dc:format>
        <dc:type
           rdf:resource="http://purl.org/dc/dcmitype/StillImage" />
        <dc:title />
      </cc:Work>
    </rdf:RDF>
  </metadata>
  <g
     inkscape:groupmode="layer"
     id="layer4"
     inkscape:label="Flower"
     style="display:inline">
    <path
       style="fill:#2f2f2f;fill-opacity:1;stroke:none;stroke-width:1.33795273;stroke-linecap:butt;stroke-linejoin:miter;stroke-miterlimit:4;stroke-dasharray:none;stroke-opacity:1;paint-order:stroke fill markers"
       d="M 5.3613281,0 C 2.5274077,4.6507167 0.65580226,9.9449324 0,15.613281 v 9.058594 c 1.2618636,10.716198 6.8897355,20.094672 15.074219,26.291016 -0.0046,-0.0019 -0.0091,-0.0039 -0.01367,-0.0059 C 10.431322,48.999167 5.3412537,47.916016 0,47.916016 v 0.582031 c 6.5782666,0 12.767637,1.667119 18.167969,4.599609 0.149175,0.081 0.293442,0.169023 0.441406,0.251953 -0.683754,0.383324 -1.374986,0.754157 -2.083984,1.095703 l -0.002,0.002 c -0.554557,0.267101 -1.116453,0.521079 -1.685547,0.761718 l -0.002,0.002 c -4.558492,1.927183 -9.5722677,2.992187 -14.83398487,2.992187 -6.554e-4,0 -0.001297747,0 -0.00195313,0 v 0.585937 c 5.3511779,0 10.449826,-1.08724 15.085938,-3.052734 C 6.8935319,61.935461 1.2611633,71.322646 0,82.046875 v 9.134766 c 1.2618306,10.716229 6.8897355,20.094669 15.074219,26.291019 -0.0046,-0.002 -0.0091,-0.004 -0.01367,-0.006 C 10.431322,115.50886 5.3412537,114.42578 0,114.42578 v 0.58399 c 6.5782666,-1e-5 12.767637,1.66516 18.167969,4.59765 0.149381,0.0811 0.29324,0.17086 0.441406,0.25391 C 13.104605,122.94798 6.76058,124.7168 0,124.7168 v 0.58398 c 5.3521047,0 10.451137,-1.0905 15.087891,-3.05664 C 6.8942198,128.44327 1.2611977,137.83303 0,148.55859 v 9.1836 c 1.2045526,10.12943 6.3117455,19.06178 13.791016,25.23437 0.420897,0.34737 0.853503,0.68209 1.289062,1.01172 -0.0073,-0.003 -0.01422,-0.007 -0.02148,-0.01 C 10.430059,182.02043 5.3412537,180.9375 0,180.9375 v 0.58398 c 6.7606763,0 13.104551,1.76782 18.609375,4.85352 -4.968932,2.78603 -10.6219938,4.4973 -16.6484375,4.80273 -0.6496382,0.0329 -1.30311084,0.0508 -1.9609375,0.0508 v 0.58203 c 5.3496338,0 10.446991,-1.08637 15.082031,-3.05078 C 6.8939546,194.95559 1.2627999,204.33616 0,215.05469 v 9.17969 c 1.2018601,10.13496 6.3086842,19.07309 13.791016,25.25 0.421996,0.34836 0.856235,0.68312 1.292968,1.01367 C 10.448757,248.53292 5.3509048,247.44922 0,247.44922 v 0.58203 c 6.5782666,0 12.766675,1.66517 18.166016,4.59766 0.150136,0.0815 0.294451,0.17236 0.443359,0.25586 -4.968932,2.78603 -10.6219938,4.49924 -16.6484375,4.80468 -0.6496382,0.0329 -1.30311084,0.0488 -1.9609375,0.0488 v 0.58399 c 0.66765671,0 1.3308766,-0.0173 1.9902344,-0.0508 1.9780732,-0.10033 3.91785,-0.34961 5.8066406,-0.73632 2.527492,-0.51749 4.965312,-1.2812 7.287109,-2.26563 C 6.8953986,261.46523 1.2631318,270.84571 0,281.56445 v 9.17969 c 1.2018629,10.13497 6.3086814,19.0731 13.791016,25.25 0.423405,0.34953 0.858635,0.68599 1.296875,1.01758 C 10.451591,315.04551 5.352451,313.95898 0,313.95898 v 0.58399 c 6.76058,0 13.103686,1.76789 18.607422,4.85351 -4.967999,2.78604 -10.6201704,4.4973 -16.6464845,4.80274 C 1.3113133,324.23214 0.65782666,324.25 0,324.25 v 0.58203 c 0.66765671,0 1.3308766,-0.0154 1.9902344,-0.0488 1.9780732,-0.10033 3.91785,-0.34962 5.8066406,-0.73632 2.527488,-0.51749 4.965315,-1.28121 7.287109,-2.26563 C 6.8952913,327.97703 1.2630324,337.35734 0,348.07617 v 9.17969 c 1.201857,10.13497 6.3086832,19.07309 13.791016,25.25 0.421996,0.34837 0.856235,0.68313 1.292968,1.01367 C 10.448757,381.55445 5.3509048,380.4707 0,380.4707 v 0.58203 c 6.76058,0 13.103686,1.7679 18.607422,4.85352 -4.967999,2.78603 -10.6201708,4.49925 -16.6464845,4.80469 -0.6496242,0.0329 -1.30311089,0.0488 -1.9609375,0.0488 v 0.58398 c 0.66765666,0 1.3308767,-0.0173 1.9902344,-0.0508 1.9780731,-0.10033 3.9178502,-0.34961 5.8066406,-0.73633 2.526037,-0.51718 4.962609,-1.28006 7.283203,-2.26367 C 6.8927783,394.48911 1.2623545,403.86963 0,414.58789 v 9.18359 c 1.203344,10.1318 6.3103381,19.06648 13.791016,25.24024 0.427321,0.35266 0.866164,0.69296 1.308593,1.02734 C 10.460095,448.06948 5.3570973,446.98047 0,446.98047 v 38.68945 h 38.400391 v -4.66015 c -1.284833,-10.69093 -6.923337,-20.04118 -15.09961,-26.22071 4.639521,1.96892 9.742513,3.0586 15.09961,3.0586 v -0.57618 c -6.760231,0 -13.104803,-1.76715 -18.609375,-4.85351 5.504769,-3.08562 11.848795,-4.85352 18.609375,-4.85352 v -0.58398 c -5.357097,0 -10.460089,1.08968 -15.09961,3.05859 0.44243,-0.33438 0.881273,-0.67468 1.308594,-1.02734 7.473666,-6.16797 12.581145,-15.09089 13.791016,-25.21094 v -9.22461 c -1.265596,-10.71313 -6.89592,-20.08944 -15.080079,-26.2832 4.634162,1.96423 9.730711,3.05078 15.080079,3.05078 v -0.58398 c -6.760582,0 -13.104605,-1.76882 -18.609375,-4.85547 5.504572,-3.08533 11.849144,-4.85157 18.609375,-4.85157 v -0.58203 c -0.667657,0 -1.330877,0.0154 -1.990235,0.0488 -4.625035,0.23449 -9.036881,1.28053 -13.09375,3 0.436734,-0.33054 0.870973,-0.6653 1.292969,-1.01367 7.482326,-6.1769 12.589146,-15.11503 13.791016,-25.25 v -9.18555 c -1.264678,-10.7165 -6.896709,-20.09435 -15.083985,-26.28906 4.635228,1.9653 9.73308,3.05078 15.083985,3.05078 v -0.582 c -6.761185,0 -13.105299,-1.7683 -18.609375,-4.85547 5.504572,-3.08532 11.849143,-4.85156 18.609375,-4.85156 v -0.58399 c -5.352451,0 -10.451591,1.08705 -15.087891,3.05274 0.43824,-0.33159 0.87347,-0.66805 1.296875,-1.01758 7.481913,-6.17656 12.588776,-15.11377 13.791016,-25.24805 v -9.18554 c -1.264379,-10.71712 -6.896387,-20.09607 -15.083985,-26.29102 4.635231,1.96531 9.733076,3.05274 15.083985,3.05274 v -0.58399 c -6.760232,0 -13.103883,-1.76715 -18.607422,-4.85351 5.503735,-3.08563 11.846842,-4.85352 18.607422,-4.85352 v -0.58203 c -5.350905,0 -10.448757,1.08422 -15.083985,3.04883 0.436734,-0.33055 0.870973,-0.66531 1.292969,-1.01367 7.482324,-6.1769 12.58915,-15.11505 13.791016,-25.25 v -9.19727 c -1.267454,-10.71153 -6.899748,-20.08494 -15.083985,-26.27734 4.635231,1.96461 9.733076,3.05078 15.083985,3.05078 v -0.58203 c -6.761281,0 -13.105244,-1.76926 -18.609375,-4.85547 5.503935,-3.08592 11.848442,-4.85157 18.609375,-4.85157 v -0.58398 c -5.349626,0 -10.445738,1.08706 -15.080079,3.05078 0.437115,-0.33074 0.868655,-0.66703 1.291016,-1.01562 7.468891,-6.16435 12.573359,-15.07801 13.789063,-25.1875 v -9.30469 c -1.277274,-10.6881 -6.899837,-20.04078 -15.06836,-26.22461 4.631112,1.96049 9.723387,3.04492 15.06836,3.04492 v -0.58398 c -6.76058,0 -13.103687,-1.7679 -18.607422,-4.85352 5.503538,-3.08636 11.847191,-4.85352 18.607422,-4.85351 v -0.58399 c -5.349626,0 -10.445738,1.08832 -15.080079,3.05274 0.437115,-0.33074 0.868655,-0.66704 1.291016,-1.01563 7.469039,-6.16446 12.57349,-15.08139 13.789063,-25.191406 V 81.96875 C 37.12298,71.279751 31.499759,61.925941 23.330078,55.742188 c 4.631759,1.961132 9.724408,3.046874 15.070313,3.046874 V 58.203125 C 31.640895,58.202783 25.29988,56.436589 19.796875,53.351562 25.299589,50.266445 31.641622,48.498047 38.400391,48.498047 v -0.582031 c -5.349626,0 -10.445738,1.086367 -15.080079,3.050781 0.437016,-0.33064 0.868756,-0.667136 1.291016,-1.015625 3.344008,-2.759929 6.216032,-6.07071 8.478516,-9.792969 l 0.002,-0.002 c 0.322782,-0.531127 0.632161,-1.071659 0.929687,-1.619141 l 0.002,-0.002 c 2.285542,-4.206341 3.791909,-8.888509 4.376953,-13.853515 V 15.542969 C 37.737936,9.9009551 35.871362,4.6311563 33.048828,0 h -0.691406 c 3.544023,5.697703 5.63967,12.391424 5.736328,19.576172 -0.609417,-0.3639 -1.214027,-0.738417 -1.800781,-1.134766 -0.506351,-0.342145 -1.003573,-0.697045 -1.492188,-1.0625 h -0.002 c -0.488613,-0.365485 -0.96742,-0.742859 -1.4375,-1.130859 h -0.002 C 32.418821,15.471659 31.517826,14.650806 30.65625,13.789062 28.501556,11.63437 26.602669,9.2203665 25.011719,6.6015625 24.69399,6.0784565 24.388564,5.5470405 24.095703,5.0078125 l -0.002,-0.00195 C 23.814782,4.4921258 23.548662,3.9690671 23.292969,3.4414062 23.280509,3.4156833 23.266306,3.3909894 23.253906,3.3652344 23.206526,3.2668994 23.165696,3.1652086 23.119141,3.0664062 22.902743,2.6071106 22.688603,2.1429555 22.490234,1.6738281 22.257197,1.1226282 22.03759,0.56410071 21.830078,0 h -0.617187 c 0.01676,0.04634653 0.02994,0.09436442 0.04687,0.140625 l 0.002,0.001953 c 0.21673,0.59180606 0.446996,1.1779824 0.691406,1.7558594 l 0.002,0.00195 c 0.244439,0.5778376 0.502129,1.1478374 0.773438,1.7109375 l 0.002,0.00195 c 0.271338,0.563063 0.554164,1.1184986 0.851562,1.6660157 l 0.002,0.00195 c 0.297428,0.5474814 0.60701,1.0880137 0.929688,1.6191406 l 0.002,0.00195 c 0.322707,0.5310915 0.656758,1.0544307 1.003906,1.5683593 l 0.002,0.00195 c 0.694864,1.0285426 1.438652,2.0216325 2.226563,2.9765625 l 0.002,0.002 c 1.182246,1.432648 2.464413,2.778645 3.837891,4.027344 h 0.002 c 0.457704,0.41609 0.925022,0.822754 1.402344,1.216796 h 0.002 c 0.421879,0.348248 0.852455,0.685196 1.289062,1.015626 -0.0078,-0.0033 -0.01563,-0.0065 -0.02344,-0.0098 -4.629223,-1.957904 -9.71734,-3.041016 -15.058594,-3.041016 -5.341254,0 -10.4300633,1.083112 -15.0585939,3.041016 -0.00457,0.0019 -0.0091,0.0039 -0.013672,0.0059 C 10.038871,13.23338 14.609742,7.0965198 17.175781,0 H 16.554688 C 13.52614,8.2352596 7.7456084,15.137208 0.3125,19.576172 0.37195271,15.161364 1.1692644,10.925913 2.6074219,6.9960938 l 0.00195,-0.00195 C 2.8227276,6.4112645 3.0484515,5.8347573 3.2890625,5.265625 l 0.00195,-0.00195 C 4.0135938,3.5548303 4.8565445,1.908486 5.8105469,0.33789062 L 5.8125,0.3359375 C 5.8819861,0.22155902 5.960593,0.11357839 6.03125,0 Z M 19.201172,15.244141 c 6.760231,0 13.102849,1.766236 18.607422,4.851562 -0.14765,0.08276 -0.290596,0.173059 -0.439453,0.253906 l -0.002,0.002 c -1.079145,0.586009 -2.191111,1.119954 -3.330079,1.601563 l -0.002,0.002 C 29.47657,23.882356 24.464749,24.94736 19.203031,24.94736 12.4428,24.94736 6.0991482,23.181122 0.59560912,20.095797 6.0990419,17.01075 12.441545,15.244141 19.201172,15.244141 Z m 18.892578,5.36914 c -0.182458,13.702726 -7.584332,25.653609 -18.583984,32.220703 0.0064,-0.483485 0.01089,-0.968296 0.03516,-1.447265 C 20.208439,38.290633 27.482143,26.948763 38.09375,20.613281 Z M 0.3125,20.617188 C 11.309043,27.184132 18.708782,39.132498 18.892578,52.832031 7.8959685,46.264987 0.49611574,34.316882 0.3125,20.617188 Z m 3.8085938,1.865234 c 4.6343403,1.964414 9.7304522,3.050781 15.0800782,3.050781 5.341254,0 10.431324,-1.084373 15.060547,-3.042969 0.0065,-0.0027 0.01307,-0.0051 0.01953,-0.0078 -0.930628,0.704203 -1.831091,1.444799 -2.693359,2.228516 C 24.887953,30.800499 20.344138,39.213422 19.203125,48.671875 17.914736,37.996075 12.284745,28.658372 4.1210938,22.482422 Z M 19.509766,53.867188 C 30.512628,60.434789 37.918438,72.38743 38.099609,86.091797 27.097695,79.523498 19.692932,67.57127 19.509766,53.867188 Z m -0.617188,0.002 C 18.772319,62.875454 15.538849,71.131697 10.207031,77.59375 9.819239,78.063585 9.4211991,78.524077 9.0117188,78.974609 6.4860828,81.753923 3.5515946,84.153683 0.30859375,86.089844 0.49308722,72.389495 7.8944958,60.437461 18.892578,53.869141 Z m 0.310547,4.158203 c 0.04889,0.405233 0.09297,0.811607 0.154297,1.21289 1.272137,8.324772 5.198004,15.778536 10.886719,21.46875 1.261348,1.261682 2.612114,2.433109 4.037109,3.511719 -0.0073,-0.0031 -0.01423,-0.0067 -0.02148,-0.0098 -4.629223,-1.957904 -9.71734,-3.039063 -15.058594,-3.039063 -5.341254,0 -10.4300633,1.081159 -15.0585939,3.039063 -0.00725,0.0031 -0.014232,0.0067 -0.021484,0.0098 C 5.051595,83.516602 5.952262,82.773891 6.8144574,81.990281 7.2725098,81.573958 7.720614,81.146625 8.1582074,80.709031 14.123251,74.744197 18.139496,66.83979 19.203125,58.027344 Z m -0.002,23.726562 c 6.76058,0 13.102652,1.767894 18.607422,4.853516 -4.968932,2.786032 -10.620041,4.499248 -16.646485,4.804687 -0.649638,0.03293 -1.30311,0.04883 -1.960937,0.04883 -6.76058,0 -13.1036863,-1.768813 -18.607422,-4.855469 5.5035387,-3.085326 11.847191,-4.851562 18.607422,-4.851564 z m 18.898437,5.367188 c -0.181637,13.597739 -7.472908,25.477879 -18.335937,32.078129 -0.08342,0.0507 -0.170072,0.0964 -0.253906,0.14648 0.0064,-0.48397 0.01087,-0.96782 0.03516,-1.44726 0.663582,-13.09806 7.940259,-24.442469 18.554687,-30.777349 z m -37.79101525,0.002 C 10.922285,93.45824 18.199526,104.80251 18.863281,117.89844 c 0.0244,0.4814 0.03073,0.96716 0.03711,1.45312 C 7.8956387,112.78478 0.48972883,100.83047 0.30859375,87.123047 Z m 3.81250005,1.871094 c 4.6343403,1.964414 9.7304522,3.050781 15.0800782,3.050781 5.346517,0 10.439388,-1.084622 15.072266,-3.046875 -0.927849,0.702466 -1.825685,1.44308 -2.685547,2.224609 -6.412733,5.828534 -10.860476,13.7815 -12.230469,22.74609 -0.06232,0.40778 -0.108725,0.82056 -0.158203,1.23242 -0.04947,-0.41178 -0.09394,-0.82472 -0.15625,-1.23242 C 17.488908,103.79942 11.971686,94.935527 4.1210938,88.994141 Z M 18.898438,120.37891 c -0.182496,13.59669 -7.473572,25.47632 -18.335938,32.07617 -0.0834161,0.0507 -0.17007171,0.0964 -0.25390625,0.14648 C 0.49311551,138.89869 7.8975655,126.94658 18.898438,120.37891 Z m 0.611328,0 c 11.002789,6.56774 18.408672,18.52029 18.589843,32.22461 -11.00139,-6.56799 -18.405997,-18.52135 -18.589843,-32.22461 z m -0.310547,4.13867 c 0.0495,0.41212 0.09585,0.82634 0.158203,1.23437 1.272137,8.32477 5.198004,15.77659 10.886719,21.4668 0.875186,0.87542 1.792645,1.70933 2.748047,2.49805 0.422295,0.34862 0.853961,0.68681 1.291015,1.01758 -4.63541,-1.9648 -9.730862,-3.05274 -15.082031,-3.05274 -5.351169,0 -10.4485742,1.08794 -15.0839845,3.05274 0.4370546,-0.33077 0.8687192,-0.66896 1.2910156,-1.01758 7.4698339,-6.16659 12.5762259,-15.08559 13.7910159,-25.19922 z m 0.002,23.74804 c 6.76058,0 13.102652,1.7679 18.607422,4.85352 -4.968932,2.78603 -10.620041,4.49925 -16.646485,4.80469 -0.649638,0.0329 -1.30311,0.0488 -1.960937,0.0488 -6.76058,0 -13.1036863,-1.76882 -18.607422,-4.85547 5.5035387,-3.08533 11.847191,-4.85156 18.607422,-4.85157 z m 18.898437,5.36719 c -0.181815,13.59752 -7.473046,25.47796 -18.335937,32.07813 -0.08342,0.0507 -0.170072,0.0964 -0.253906,0.14648 0.0064,-0.48397 0.01087,-0.96782 0.03516,-1.44726 0.663582,-13.09807 7.940259,-24.44247 18.554687,-30.77735 z m -37.79101525,0.004 C 10.92188,159.97202 18.19959,171.31466 18.863328,184.41025 c 0.0244,0.4814 0.03073,0.96716 0.03711,1.45312 -0.08637,-0.0515 -0.175793,-0.0982 -0.261719,-0.15039 C 7.7768964,179.11425 0.48898261,167.23579 0.30859375,153.63672 Z m 3.80859375,1.86523 c 4.6354103,1.96549 9.7328155,3.05274 15.0839845,3.05274 5.349626,0 10.445044,-1.08637 15.080078,-3.05078 -0.930628,0.7042 -1.831091,1.4448 -2.693359,2.22851 -6.412733,5.82853 -10.860476,13.78151 -12.230469,22.7461 -0.06235,0.40801 -0.108705,0.82227 -0.158203,1.23437 -0.04949,-0.41201 -0.09391,-0.82645 -0.15625,-1.23437 -1.55435,-10.17093 -7.072862,-19.03517 -14.9257815,-24.97657 z M 18.898438,186.88672 C 18.717292,200.48505 11.425909,212.36632 0.5625,218.9668 0.4790399,219.0175 0.39247272,219.0632 0.30859375,219.11328 0.49021911,205.40694 7.8952591,193.45355 18.898438,186.88672 Z m 0.611328,0.004 C 30.512305,193.45854 37.91862,205.411 38.099609,219.11523 27.098144,212.54727 19.693613,200.59395 19.509766,186.89062 Z m -0.310547,4.13868 c 0.04948,0.41188 0.09588,0.82461 0.158203,1.23242 1.272137,8.32477 5.198004,15.77854 10.886719,21.46875 1.263647,1.26398 2.61705,2.43735 4.044921,3.51758 -0.01049,-0.004 -0.02076,-0.009 -0.03125,-0.0137 -4.628529,-1.95791 -9.715386,-3.04102 -15.05664,-3.04102 -5.341254,0 -10.4300633,1.08311 -15.0585939,3.04102 -0.01049,0.004 -0.020765,0.009 -0.03125,0.0137 8.1707249,-6.18137 13.8039749,-15.53126 15.0878909,-26.21875 z m 0.002,23.74609 c 6.578266,0 12.765684,1.66712 18.166016,4.59961 0.149956,0.0814 0.294626,0.17053 0.443359,0.25391 -4.969345,2.7866 -10.621301,4.49921 -16.648438,4.80468 -0.649638,0.0329 -1.30311,0.0488 -1.960937,0.0488 -6.760933,0 -13.1054401,-1.76656 -18.60937512,-4.85351 5.50393502,-3.08642 11.84844212,-4.85352 18.60937512,-4.85352 z m 18.898437,5.36523 c -0.180465,13.59916 -7.472003,25.47929 -18.335937,32.08008 -0.08666,0.0526 -0.176564,0.10037 -0.263672,0.15235 0.0064,-0.48597 0.01271,-0.97173 0.03711,-1.45313 0.663915,-13.09906 7.944673,-24.4447 18.562499,-30.7793 z m -37.79101525,0.006 c 10.61043725,6.33574 17.88344625,17.6784 18.54687525,30.77344 0.02426,0.4788 0.02872,0.962 0.03516,1.44531 -0.08305,-0.0496 -0.169312,-0.0943 -0.251953,-0.14453 C 7.7784564,245.62048 0.49100607,233.74318 0.30859375,220.14648 Z m 3.81250005,1.86914 c 4.6343403,1.96442 9.7304522,3.05079 15.0800782,3.05079 5.349626,0 10.443784,-1.08637 15.078125,-3.05079 -0.929847,0.70372 -1.829814,1.44542 -2.691406,2.22852 -6.412733,5.82853 -10.860476,13.78151 -12.230469,22.74609 -0.06232,0.40778 -0.108725,0.82056 -0.158203,1.23243 -0.04947,-0.41178 -0.09394,-0.82473 -0.15625,-1.23243 C 17.488955,236.82105 11.971733,227.95725 4.1211408,222.01586 Z M 19.502,253.39868 c 10.61443,6.33488 17.891106,17.67928 18.554688,30.77734 0.02429,0.47945 0.02874,0.9633 0.03516,1.44727 -0.08384,-0.0501 -0.17049,-0.0958 -0.253906,-0.14649 -10.863025,-6.60024 -18.154295,-18.48039 -18.335938,-32.07812 z m -0.611328,0.004 C 18.706321,267.10138 11.30548,279.05238 0.30859375,285.62109 0.49103489,271.91937 7.8923033,259.96975 18.890625,253.40234 Z m 0.308594,4.13672 c 0.0495,0.41212 0.09585,0.82634 0.158203,1.23438 1.272137,8.32477 5.198004,15.77658 10.886719,21.46679 0.875186,0.87542 1.792645,1.70934 2.748047,2.49805 0.422295,0.34862 0.853961,0.68681 1.291015,1.01758 -4.63541,-1.96479 -9.730862,-3.05274 -15.082031,-3.05274 -5.351169,0 -10.4485742,1.08795 -15.0839845,3.05274 0.4370546,-0.33077 0.8687192,-0.66896 1.2910156,-1.01758 7.4698339,-6.16658 12.5762259,-15.08559 13.7910159,-25.19922 z m 0.002,23.74805 c 6.761184,0 13.103345,1.76739 18.607422,4.85351 -4.968932,2.78604 -10.620041,4.49925 -16.646485,4.80469 -0.649638,0.0329 -1.30311,0.0488 -1.960937,0.0488 -6.761185,0 -13.1052984,-1.7683 -18.60937512,-4.85547 C 6.0963696,283.05286 12.44094,281.28711 19.201172,281.28711 Z m 18.890625,5.36914 c -0.182416,13.59669 -7.46987,25.47633 -18.330078,32.07617 -0.0854,0.0519 -0.173928,0.0992 -0.259766,0.15039 0.0064,-0.48529 0.01079,-0.97043 0.03516,-1.45117 0.663756,-13.09592 7.940996,-24.43991 18.554688,-30.77539 z m -37.78320325,0.002 c 10.61036525,6.33575 17.88344825,17.67846 18.54687525,30.77344 0.02426,0.4788 0.02872,0.962 0.03516,1.44531 -0.08305,-0.0496 -0.169312,-0.0943 -0.251953,-0.14453 C 7.7789777,312.13251 0.49168039,300.25409 0.30859375,286.6582 Z m 3.80859375,1.86524 c 4.6354103,1.96548 9.7328155,3.05469 15.0839845,3.05468 5.351169,1e-5 10.446621,-1.0892 15.082031,-3.05468 -0.931409,0.70469 -1.832368,1.44809 -2.695312,2.23242 -6.412733,5.82853 -10.860476,13.77955 -12.230469,22.74414 -0.06235,0.40801 -0.108705,0.82228 -0.158203,1.23438 -0.04949,-0.41202 -0.09391,-0.82645 -0.15625,-1.23438 -1.55435,-10.17093 -7.072862,-19.03516 -14.9257815,-24.97656 z M 19.501953,319.9082 c 10.614884,6.33479 17.891089,17.67894 18.554688,30.77735 0.0243,0.47961 0.02874,0.96507 0.03516,1.44922 -0.08388,-0.0501 -0.170446,-0.0958 -0.253906,-0.14649 C 26.974478,345.38742 19.683099,333.50653 19.501953,319.9082 Z m -0.611328,0.004 C 18.706778,333.61496 11.302248,345.56875 0.30078125,352.13672 0.48177601,338.43219 7.887699,326.47993 18.890625,319.91211 Z m 0.308594,4.13867 c 0.04948,0.41188 0.09588,0.82462 0.158203,1.23242 1.272137,8.32477 5.198004,15.77854 10.886719,21.46875 1.263647,1.26398 2.61705,2.43736 4.044921,3.51758 -0.01049,-0.004 -0.02076,-0.009 -0.03125,-0.0137 -4.62853,-1.9579 -9.715385,-3.04102 -15.05664,-3.04102 -5.341255,0 -10.4300628,1.08312 -15.0585939,3.04102 -0.01049,0.004 -0.020765,0.009 -0.03125,0.0137 8.1707249,-6.18137 13.8039749,-15.53126 15.0878909,-26.21875 z m 0.002,23.7461 c 6.578267,0 12.764721,1.66711 18.164062,4.5996 0.14993,0.0814 0.294655,0.17054 0.44336,0.25391 -4.968412,2.7866 -10.619478,4.49921 -16.646485,4.80469 -0.649624,0.0329 -1.30311,0.0508 -1.960937,0.0508 -6.760933,0 -13.1063595,-1.76851 -18.61132825,-4.85547 C 6.094813,349.56447 12.440238,347.79687 19.201172,347.79688 Z m -18.90039075,5.36718 c 0.0856033,0.0511 0.17459878,0.0967 0.25976563,0.14844 10.47521812,6.3638 17.63668912,17.63641 18.29492212,30.62891 0.02429,0.47944 0.02874,0.96329 0.03516,1.44726 -0.08384,-0.0501 -0.17049,-0.0958 -0.253906,-0.14648 C 7.7733001,378.64086 0.48191611,366.7624 0.30078125,353.16406 Z m 37.79101575,0.002 c -0.181744,13.59751 -7.469349,25.47601 -18.330078,32.07617 -0.0854,0.0519 -0.173928,0.0991 -0.259766,0.15039 0.0064,-0.48529 0.01079,-0.97043 0.03516,-1.45117 0.663758,-13.096 7.940924,-24.43993 18.554688,-30.77539 z m -33.9707032,1.87109 c 4.6343403,1.96441 9.7304522,3.05078 15.0800782,3.05078 5.346517,0 10.438128,-1.08462 15.070312,-3.04687 -0.928057,0.70246 -1.82547,1.44309 -2.685546,2.2246 -6.414342,5.82854 -10.863834,13.7815 -12.234376,22.7461 -0.06135,0.40126 -0.105386,0.80768 -0.154296,1.21289 -1.287909,-10.67449 -6.915805,-20.01167 -15.0761722,-26.1875 z M 19.502,386.4181 c 9.561979,5.70642 16.414163,15.47778 18.164063,26.93555 0.192687,1.26165 0.324801,2.5445 0.390625,3.84375 0.02429,0.47944 0.02874,0.96329 0.03516,1.44726 -0.08384,-0.0501 -0.17049,-0.0958 -0.253906,-0.14648 C 26.974396,411.89761 19.682973,400.01662 19.502004,386.4181 Z m -0.611328,0.006 C 18.70628,400.126 11.301789,412.07873 0.30078125,418.64648 0.48194877,404.94252 7.8882948,392.99167 18.890625,386.42383 Z m 0.306641,4.1582 c 0.04891,0.40523 0.09295,0.81161 0.154296,1.21289 1.272647,8.32477 5.198459,15.77854 10.888672,21.46875 0.875418,0.87542 1.794372,1.70738 2.75,2.4961 0.421382,0.34778 0.852995,0.68365 1.289063,1.01367 -4.63415,-1.96353 -9.728773,-3.04883 -15.078125,-3.04883 -5.351169,0 -10.4485742,1.08794 -15.0839845,3.05273 0.4370546,-0.33076 0.8687192,-0.66896 1.2910156,-1.01757 7.4648579,-6.16248 12.5698869,-15.07245 13.7890629,-25.17774 z m 0.0039,23.71875 c 6.760231,0 13.10193,1.76716 18.605469,4.85352 -0.188882,0.11043 -0.381535,0.2146 -0.56836,0.32812 -4.828399,2.59979 -10.279978,4.1906 -16.076172,4.48438 -0.649624,0.0329 -1.30311,0.0488 -1.960937,0.0488 -6.763347,0 -13.1108566,-1.76841 -18.61718762,-4.85742 5.50633112,-3.089 11.85383962,-4.85742 18.61718762,-4.85742 z m 18.890625,5.36719 c -0.180754,13.73075 -7.61143,25.70525 -18.646485,32.26758 a 0.53822543,0.53822543 0 0 0 -0.234374,-0.0605 c 0.230417,-12.86884 6.822681,-24.18239 16.779296,-30.91016 0.486467,-0.32871 0.982257,-0.64665 1.484375,-0.95312 0.20767,-0.11157 0.411812,-0.22852 0.617188,-0.34375 z M 0.30859375,420.00391 C 11.056565,426.55585 18.29425,438.28327 18.587891,451.72266 18.081058,451.41365 17.580752,451.09336 17.089844,450.76172 7.1704785,444.06056 0.58838075,432.80955 0.30859375,420.00391 Z m 2.43359375,0.91992 c 4.9950565,2.35306 10.5725605,3.67578 16.4589845,3.67578 0.667657,0 1.330877,-0.0173 1.990234,-0.0508 1.978073,-0.10033 3.915897,-0.34962 5.804688,-0.73633 2.449077,-0.50143 4.811648,-1.23907 7.068359,-2.17969 -0.961964,0.72365 -1.889961,1.49051 -2.779297,2.29883 -6.412733,5.82853 -10.860476,13.7815 -12.230468,22.74609 -0.06132,0.40126 -0.105407,0.80769 -0.154297,1.21289 -1.344228,-11.13756 -7.417954,-20.8127 -16.1582035,-26.96677 z"
       transform="scale(0.26458333)"
       id="rect6616"
       inkscape:connector-curvature="0" />
  </g>
  <g
     inkscape:groupmode="layer"
     id="layer5"
     inkscape:label="Art 1"
     sodipodi:insensitive="true"
     style="display:inline">
    <path
       style="fill:#8c8c8c;fill-opacity:1;stroke:none;stroke-width:0.99999994px;stroke-linecap:butt;stroke-linejoin:miter;stroke-opacity:1"
       d="m 0,419.1582 37.839844,22.0625 v -22.06054 z"
       transform="scale(0.26458333)"
       id="path5561"
       inkscape:connector-curvature="0" />
    <path
       style="fill:#616161;fill-opacity:1;stroke:none;stroke-width:0.99999994px;stroke-linecap:butt;stroke-linejoin:miter;stroke-opacity:1"
       d="M 18.900391,452.56836 0,485.66992 h 37.839844 v -33.10156 z"
       transform="scale(0.26458333)"
       id="path5496"
       inkscape:connector-curvature="0" />
    <path
       style="fill:#616161;fill-opacity:1;stroke:none;stroke-width:0.26458332px;stroke-linecap:butt;stroke-linejoin:miter;stroke-opacity:1"
       d="M -3.1501275e-7,110.90237 9.8192566,105.23335 l 0.00222,-3.12951 H 5.0798297 Z"
       id="path5517"
       inkscape:connector-curvature="0"
       sodipodi:nodetypes="ccccc" />
    <path
       style="fill:#616161;fill-opacity:1;stroke:none;stroke-width:0.26458332px;stroke-linecap:butt;stroke-linejoin:miter;stroke-opacity:1"
       d="m 5.0799987,84.506313 4.9118566,3e-6 0.081912,-2.982724 L -1.3150128e-6,75.707499 Z"
       id="path5557"
       inkscape:connector-curvature="0" />
    <path
       style="fill:#8c8c8c;fill-opacity:1;stroke:none;stroke-width:0.26458332px;stroke-linecap:butt;stroke-linejoin:miter;stroke-opacity:1"
       d="M -1.6831501e-4,93.305031 5.0798317,102.10385 10.16,93.305324 5.0799987,84.506312 Z"
       id="path5519"
       inkscape:connector-curvature="0" />
    <path
       style="fill:#616161;fill-opacity:1;stroke:none;stroke-width:0.26458332px;stroke-linecap:butt;stroke-linejoin:miter;stroke-opacity:1"
       d="M 10.160168,75.707789 0.37092174,70.055968 0.3363595,66.908778 5.0801666,66.908777 1.6668499e-4,58.109963 5.0803346,49.311242 10.160336,58.110254 Z"
       id="path5521"
       inkscape:connector-curvature="0"
       sodipodi:nodetypes="cccccccc" />
    <path
       style="fill:#616161;fill-opacity:1;stroke:none;stroke-width:0.26458332px;stroke-linecap:butt;stroke-linejoin:miter;stroke-opacity:1"
       d="m 0.36460454,47.426625 9.71036046,-3.361182 0.08554,-3.5526 -5.0800024,-8.799009 -5.08016791532,8.798718 z"
       id="path5523"
       inkscape:connector-curvature="0"
       sodipodi:nodetypes="cccccc" />
    <path
       style="fill:#616161;fill-opacity:1;stroke:none;stroke-width:0.26458332px;stroke-linecap:butt;stroke-linejoin:miter;stroke-opacity:1"
       d="M 0.46563647,22.10921 5.0806775,14.116174 9.8423036,22.363647 9.6862691,12.473001 6.176693,0.31529838 3.9803001,0.330151 0.46268375,12.514882 Z"
       id="path5525"
       inkscape:connector-curvature="0"
       sodipodi:nodetypes="cccccccc" />
  </g>
  <g
     inkscape:groupmode="layer"
     id="layer6"
     inkscape:label="Art 2"
     style="display:inline"
     sodipodi:insensitive="true">
    <path
       style="fill:#4b4b4b;fill-opacity:1;stroke:none;stroke-width:0.26458332px;stroke-linecap:butt;stroke-linejoin:miter;stroke-opacity:1"
       d="M 0,128.50016 9.8982998,122.78205 10.159999,128.5 Z"
       id="path5528"
       inkscape:connector-curvature="0"
       sodipodi:nodetypes="cccc" />
    <path
       sodipodi:nodetypes="cccc"
       inkscape:connector-curvature="0"
       id="path5530"
       d="m 0,110.90227 9.8982998,-5.71811 0.2616992,5.71795 z"
       style="fill:#4b4b4b;fill-opacity:1;stroke:none;stroke-width:0.26458332px;stroke-linecap:butt;stroke-linejoin:miter;stroke-opacity:1" />
    <path
       style="fill:#4b4b4b;fill-opacity:1;stroke:none;stroke-width:0.26458332px;stroke-linecap:butt;stroke-linejoin:miter;stroke-opacity:1"
       d="M 5.0798295,102.10384 5.0799986,84.50631 -1.6831501e-4,93.305028 Z"
       id="path5534"
       inkscape:connector-curvature="0" />
    <path
       style="fill:#4b4b4b;fill-opacity:1;stroke:none;stroke-width:0.26458332px;stroke-linecap:butt;stroke-linejoin:miter;stroke-opacity:1"
       d="m 5.0799986,84.506312 4.8118879,-2.794354 -0.042427,2.794355 z"
       id="path5536"
       inkscape:connector-curvature="0"
       sodipodi:nodetypes="cccc" />
    <path
       style="fill:#4b4b4b;fill-opacity:1;stroke:none;stroke-width:0.26458332px;stroke-linecap:butt;stroke-linejoin:miter;stroke-opacity:1"
       d="M 1.6668499e-4,58.109963 10.160168,75.707787 9.8330214,63.786963 Z"
       id="path5540"
       inkscape:connector-curvature="0"
       sodipodi:nodetypes="cccc" />
    <path
       style="fill:#4b4b4b;fill-opacity:1;stroke:none;stroke-width:0.26458332px;stroke-linecap:butt;stroke-linejoin:miter;stroke-opacity:1"
       d="M 10.160505,40.512843 3.3468468e-4,40.512314 -0.02798142,46.346435 Z"
       id="path5544"
       inkscape:connector-curvature="0"
       sodipodi:nodetypes="cccc" />
    <path
       style="fill:#4b4b4b;fill-opacity:1;stroke:none;stroke-width:0.26458332px;stroke-linecap:butt;stroke-linejoin:miter;stroke-opacity:1"
       d="M 5.0268451e-4,22.914884 4.3327896,0.40452717 3.905523,0.38444086 0.41505544,11.867027 Z"
       id="path5546"
       inkscape:connector-curvature="0"
       sodipodi:nodetypes="ccccc" />
  </g>
  <g
     inkscape:groupmode="layer"
     id="layer7"
     inkscape:label="Art  3"
     sodipodi:insensitive="true"
     style="display:inline">
    <path
       style="fill:#8c8c8c;fill-opacity:1;stroke:none;stroke-width:0.26458332px;stroke-linecap:butt;stroke-linejoin:miter;stroke-opacity:1"
       d="M 10.160336,58.110254 1.6668499e-4,58.109963 9.8330212,63.786961 Z"
       id="path5549"
       inkscape:connector-curvature="0" />
    <path
       style="fill:#8c8c8c;fill-opacity:1;stroke:none;stroke-width:0.26458332px;stroke-linecap:butt;stroke-linejoin:miter;stroke-opacity:1"
       d="M 10.160673,22.915184 5.7921719,0.21559868 6.1534506,0.23478332 9.9945351,13.540882 Z"
       id="path5553"
       inkscape:connector-curvature="0"
       sodipodi:nodetypes="ccccc" />
  </g>
  <g
     inkscape:groupmode="layer"
     id="layer2"
     inkscape:label="Frontpanel"
     sodipodi:insensitive="true"
     style="display:inline">
    <g
       id="g844"
       sodipodi:insensitive="true">
      <rect
         y="0.32348093"
         x="0.32348368"
         height="127.85303"
         width="9.513031"
         id="rect4925-2"
         style="fill:none;fill-opacity:1;stroke:#616161;stroke-width:0.64696735;stroke-miterlimit:4;stroke-dasharray:none;stroke-opacity:1;paint-order:normal" />
      <rect
         transform="rotate(90)"
         style="fill:#919191;fill-opacity:1;stroke:none;stroke-width:0.94095135;stroke-opacity:1"
         id="rect883"
         width="128.5"
         height="0.28699803"
         x="1.4516144e-16"
         y="-10.16" />
      <path
         sodipodi:nodetypes="ccccc"
         inkscape:connector-curvature="0"
         id="rect885"
         d="M -10.16,-128.5 H 0 v 0.287 h -9.8801858 z"
         style="fill:#4d4d4d;fill-opacity:1;stroke:none;stroke-width:0.26458332;stroke-opacity:1"
         transform="scale(-1)" />
      <rect
         y="-2.3841858e-07"
         x="-128.5"
         height="0.28699803"
         width="128.5"
         id="rect887"
         style="fill:#4d4d4d;fill-opacity:1;stroke:none;stroke-width:0.94095135;stroke-opacity:1"
         transform="rotate(-90)" />
      <path
         sodipodi:nodetypes="ccccc"
         inkscape:connector-curvature="0"
         id="rect881"
         d="M 0,0 H 10.16 V 0.28699803 H 0.27281885 Z"
         style="fill:#919191;fill-opacity:1;stroke:none;stroke-width:0.26458332;stroke-opacity:1" />
    </g>
  </g>
</svg>
