<?xml version="1.0" encoding="UTF-8" standalone="no"?>
<!-- Created with Inkscape (http://www.inkscape.org/) -->

<svg
   xmlns:dc="http://purl.org/dc/elements/1.1/"
   xmlns:cc="http://creativecommons.org/ns#"
   xmlns:rdf="http://www.w3.org/1999/02/22-rdf-syntax-ns#"
   xmlns:svg="http://www.w3.org/2000/svg"
   xmlns="http://www.w3.org/2000/svg"
   xmlns:sodipodi="http://sodipodi.sourceforge.net/DTD/sodipodi-0.dtd"
   xmlns:inkscape="http://www.inkscape.org/namespaces/inkscape"
   width="5.5603323mm"
   height="5.5600996mm"
   viewBox="0 0 5.5603324 5.5600998"
   version="1.1"
   id="svg9135"
   inkscape:version="0.92.4 (5da689c313, 2019-01-14)"
   sodipodi:docname="CB-input_small.svg">
  <defs
     id="defs9129" />
  <sodipodi:namedview
     id="base"
     pagecolor="#ffffff"
     bordercolor="#666666"
     borderopacity="1.0"
     inkscape:pageopacity="0.0"
     inkscape:pageshadow="2"
     inkscape:zoom="13.601454"
     inkscape:cx="-13.27285"
     inkscape:cy="11.369374"
     inkscape:document-units="mm"
     inkscape:current-layer="layer1"
     showgrid="false"
     fit-margin-top="0"
     fit-margin-left="0"
     fit-margin-right="0"
     fit-margin-bottom="0"
     inkscape:window-width="2880"
     inkscape:window-height="1526"
     inkscape:window-x="-11"
     inkscape:window-y="-11"
     inkscape:window-maximized="1"
     showguides="true"
     units="px"
     objecttolerance="16"
     guidetolerance="16"
     inkscape:snap-perpendicular="true"
     inkscape:snap-tangential="true" />
  <metadata
     id="metadata9132">
    <rdf:RDF>
      <cc:Work
         rdf:about="">
        <dc:format>image/svg+xml</dc:format>
        <dc:type
           rdf:resource="http://purl.org/dc/dcmitype/StillImage" />
        <dc:title></dc:title>
      </cc:Work>
    </rdf:RDF>
  </metadata>
  <g
     inkscape:label="Layer 1"
     inkscape:groupmode="layer"
     id="layer1"
     transform="translate(-76.18149,-52.985913)">
    <g
       transform="translate(73.881656,37.323181)"
       style="display:inline"
       id="g4888">
      <ellipse
         ry="2.724261"
         rx="2.7243774"
         cy="18.442781"
         cx="5.0799999"
         id="path2460-30-1"
         style="fill:#5c5c5c;fill-opacity:1;stroke:#959595;stroke-width:0.11157757;stroke-linecap:round;stroke-miterlimit:4;stroke-dasharray:none;stroke-opacity:1;paint-order:markers fill stroke" />
      <path
         style="fill:#2f2f2f;fill-opacity:1;fill-rule:nonzero;stroke:none;stroke-width:0.22799164"
         d="m 2.6561998,18.439671 c 0.0071,1.345646 1.081203,2.42056 2.426027,2.426803 1.339479,-0.0045 2.423352,-1.085604 2.421571,-2.426803 -9.21e-4,-1.337647 -1.083873,-2.417024 -2.421571,-2.420579 -1.343043,0.0052 -2.41623,1.076691 -2.426027,2.420579"
         id="path7757-3-7-8"
         inkscape:connector-curvature="0" />
      <path
         inkscape:connector-curvature="0"
         id="path18715-7-8-0"
         d="m 3.3012271,18.44095 c 0.00479,0.987679 0.7928803,1.775618 1.7806112,1.78051 0.9828271,-0.0038 1.7781602,-0.796506 1.7769325,-1.78051 0,-0.982782 -0.7953304,-1.774425 -1.7769325,-1.776871 -0.9852781,0.0036 -1.7732563,0.790389 -1.7806112,1.776871"
         style="fill:#624063;fill-opacity:1;fill-rule:nonzero;stroke:#0f1511;stroke-width:0.15599249;stroke-miterlimit:4;stroke-dasharray:none;stroke-opacity:1" />
      <path
         sodipodi:nodetypes="sssss"
         inkscape:connector-curvature="0"
         id="path2944"
         d="M 6.7388101,18.263003 C 5.7989945,19.202779 5.7509781,18.124369 5.4953879,17.868789 5.2397976,17.61321 4.2393603,17.914565 5.364437,16.789538 c 0.086571,-0.08657 0.6441339,0.179286 0.9065604,0.4417 0.3925752,0.392561 0.5543835,0.945198 0.4678127,1.031765 z"
         style="fill:#503959;fill-opacity:1;stroke:none;stroke-width:0.15568532;stroke-linecap:round;stroke-miterlimit:4;stroke-dasharray:none;stroke-opacity:1;paint-order:normal" />
      <path
         style="fill:#000000;fill-opacity:1;fill-rule:nonzero;stroke:none;stroke-width:0.22012271"
         d="m 3.8318944,18.441493 c 0.00346,0.693022 0.5563363,1.24589 1.2493943,1.249323 0.6896186,-0.0025 1.2476764,-0.558878 1.2468156,-1.249323 0,-0.689586 -0.5580569,-1.245057 -1.2468156,-1.246772 -0.6913356,0.0025 -1.2442351,0.55459 -1.2493943,1.246772"
         id="path7759-6-7-7"
         inkscape:connector-curvature="0" />
      <path
         sodipodi:nodetypes="sssss"
         inkscape:connector-curvature="0"
         id="path2944-3"
         d="m 4.38876,19.838389 c -0.065784,0.06578 -0.2765557,-0.03833 -0.4707717,-0.23254 -0.1942169,-0.194208 -0.2983331,-0.40497 -0.2325496,-0.47075 0.065783,-0.06578 0.237316,0.09718 0.4315329,0.291393 0.1942169,0.194208 0.3375718,0.346116 0.2717884,0.411897 z"
         style="fill:#7d5b7e;fill-opacity:1;stroke:none;stroke-width:0.11830152;stroke-linecap:round;stroke-miterlimit:4;stroke-dasharray:none;stroke-opacity:1;paint-order:normal" />
    </g>
  </g>
</svg>
