<?xml version="1.0" encoding="UTF-8" standalone="no"?>
<!-- Created with Inkscape (http://www.inkscape.org/) -->

<svg
   xmlns:dc="http://purl.org/dc/elements/1.1/"
   xmlns:cc="http://creativecommons.org/ns#"
   xmlns:rdf="http://www.w3.org/1999/02/22-rdf-syntax-ns#"
   xmlns:svg="http://www.w3.org/2000/svg"
   xmlns="http://www.w3.org/2000/svg"
   xmlns:sodipodi="http://sodipodi.sourceforge.net/DTD/sodipodi-0.dtd"
   xmlns:inkscape="http://www.inkscape.org/namespaces/inkscape"
   width="10.16mm"
   height="128.5mm"
   viewBox="0 0 10.159999 128.5"
   version="1.1"
   id="svg85367"
   inkscape:version="0.92.4 (5da689c313, 2019-01-14)"
   sodipodi:docname="CB-meter.svg">
  <defs
     id="defs85361">
    <marker
       id="Arrow2Sstart"
       inkscape:isstock="true"
       inkscape:stockid="Arrow2Sstart"
       orient="auto"
       refX="0"
       refY="0"
       style="overflow:visible">
      <path
         d="M 8.72,4.03 -2.21,0.02 8.72,-4 c -1.75,2.37 -1.74,5.62 0,8.03 z"
         id="Arrow2SstartPath"
         style="fill:#000000;fill-opacity:1;stroke:#000000;stroke-opacity:1"
         transform="matrix(0.3,0,0,0.3,-0.69,0)"
         inkscape:connector-curvature="0" />
    </marker>
    <marker
       id="Arrow2Send"
       inkscape:isstock="true"
       inkscape:stockid="Arrow2Send"
       orient="auto"
       refX="0"
       refY="0"
       style="overflow:visible">
      <path
         d="M 8.72,4.03 -2.21,0.02 8.72,-4 c -1.75,2.37 -1.74,5.62 0,8.03 z"
         id="Arrow2SendPath"
         style="fill:#000000;fill-opacity:1;stroke:#000000;stroke-opacity:1"
         transform="matrix(-0.3,0,0,-0.3,0.69,0)"
         inkscape:connector-curvature="0" />
    </marker>
  </defs>
  <sodipodi:namedview
     id="base"
     pagecolor="#ffffff"
     bordercolor="#666666"
     borderopacity="1.0"
     inkscape:pageopacity="0.0"
     inkscape:pageshadow="2"
     inkscape:zoom="1.1819599"
     inkscape:cx="44.464645"
     inkscape:cy="204.95685"
     inkscape:document-units="mm"
     inkscape:current-layer="layer2"
     showgrid="false"
     fit-margin-top="0"
     fit-margin-left="0"
     fit-margin-right="0"
     fit-margin-bottom="0"
     units="px"
     inkscape:window-width="1920"
     inkscape:window-height="1057"
     inkscape:window-x="-8"
     inkscape:window-y="-8"
     inkscape:window-maximized="1"
     inkscape:snap-bbox="true"
     inkscape:bbox-nodes="true"
     inkscape:object-nodes="true"
     inkscape:snap-page="false"
     inkscape:object-paths="false"
     inkscape:snap-bbox-edge-midpoints="false"
     inkscape:bbox-paths="false"
     inkscape:snap-bbox-midpoints="true"
     inkscape:snap-intersection-paths="false"
     inkscape:snap-smooth-nodes="false"
     inkscape:snap-midpoints="false"
     inkscape:snap-object-midpoints="true"
     inkscape:snap-center="false"
     inkscape:snap-others="true"
     showguides="true"
     inkscape:guide-bbox="true"
     inkscape:snap-global="false"
     inkscape:snap-nodes="true" />
  <metadata
     id="metadata85364">
    <rdf:RDF>
      <cc:Work
         rdf:about="">
        <dc:format>image/svg+xml</dc:format>
        <dc:type
           rdf:resource="http://purl.org/dc/dcmitype/StillImage" />
        <dc:title></dc:title>
      </cc:Work>
    </rdf:RDF>
  </metadata>
  <g
     inkscape:groupmode="layer"
     id="layer1"
     inkscape:label="Background"
     style="display:inline"
     sodipodi:insensitive="true">
    <rect
       style="fill:#1c1c1c;fill-opacity:1;stroke:none;stroke-width:0.26458332;stroke-opacity:1"
       id="rect4925"
       width="10.159999"
       height="128.5"
       x="0"
       y="-2.7338665e-06" />
  </g>
  <g
     inkscape:groupmode="layer"
     id="layer4"
     inkscape:label="Flower"
     style="display:inline"
     sodipodi:insensitive="true">
    <path
       style="display:inline;fill:#4b4b4b;fill-opacity:1;stroke:none;stroke-width:1.29999995;stroke-linecap:round;stroke-linejoin:round;stroke-miterlimit:4;stroke-dasharray:none;stroke-opacity:1;paint-order:stroke markers fill"
       d="m 0.15451252,110.74399 1.70535758,-0.68261 1.5325151,-0.37331 1.7027236,-0.15119 1.9109574,0.1953 1.4622785,0.38856 1.3681689,0.61336 v 17.44242 H 0.15451252 Z"
       id="rect1137"
       inkscape:connector-curvature="0"
       sodipodi:nodetypes="cccccccccc" />
    <path
       style="fill:#2f2f2f;fill-opacity:1;stroke:none;stroke-width:1.33795273;stroke-linecap:butt;stroke-linejoin:miter;stroke-miterlimit:4;stroke-dasharray:none;stroke-opacity:1;paint-order:stroke fill markers"
       d="m 16.544922,52.279297 c 0.546619,0.26381 1.091343,0.529633 1.623047,0.818359 0.149175,0.081 0.293442,0.169023 0.441406,0.251953 -0.683754,0.383324 -1.374986,0.754158 -2.083984,1.095703 l -0.002,0.002 c -0.554557,0.267101 -1.116453,0.521079 -1.685547,0.761718 l -0.002,0.002 C 10.277446,57.13812 5.2636702,58.203125 0.00195313,58.203125 H 0 v 0.585937 c 5.3511778,0 10.449826,-1.08724 15.085938,-3.052734 C 6.8936255,61.935369 1.2611633,71.322646 0,82.046875 v 9.134766 c 1.2618306,10.716229 6.8897354,20.094669 15.074219,26.291019 -0.0046,-0.002 -0.0091,-0.004 -0.01367,-0.006 C 10.43132,115.509 5.3412536,114.42578 0,114.42578 v 0.58399 c 6.5782665,-1e-5 12.767637,1.66516 18.167969,4.59765 0.149381,0.0811 0.29324,0.17086 0.441406,0.25391 C 13.104605,122.94798 6.7605799,124.7168 0,124.7168 v 0.58398 c 5.3521046,0 10.451137,-1.0905 15.087891,-3.05664 C 6.8942195,128.44327 1.2611977,137.83303 0,148.55859 v 9.1836 c 1.2045526,10.12943 6.3117452,19.06178 13.791016,25.23437 0.420897,0.34737 0.853503,0.68209 1.289062,1.01172 -0.0073,-0.003 -0.01422,-0.007 -0.02148,-0.01 C 10.430055,182.02067 5.3412536,180.9375 0,180.9375 v 0.58398 c 6.7606762,0 13.104551,1.76782 18.609375,4.85352 -4.968932,2.78603 -10.6219939,4.4973 -16.6484375,4.80273 -0.6496382,0.0329 -1.30311085,0.0508 -1.9609375,0.0508 v 0.58203 c 5.3496337,0 10.446991,-1.08637 15.082031,-3.05078 C 6.893955,194.95558 1.2627999,204.33616 0,215.05469 v 9.17969 c 1.2018601,10.13495 6.3086839,19.07309 13.791016,25.25 0.421996,0.34835 0.856235,0.68312 1.292968,1.01367 C 10.448757,248.53292 5.3509047,247.44922 0,247.44922 v 0.58203 c 6.5782665,0 12.766675,1.66517 18.166016,4.59766 0.150136,0.0815 0.294451,0.17236 0.443359,0.25586 -4.968932,2.78603 -10.6219939,4.49924 -16.6484375,4.80468 -0.6496382,0.0329 -1.30311085,0.0488 -1.9609375,0.0488 v 0.58399 c 0.6676567,0 1.3308766,-0.0173 1.9902344,-0.0508 1.9780732,-0.10033 3.91785,-0.34961 5.8066406,-0.73632 2.527492,-0.51749 4.965312,-1.2812 7.287109,-2.26563 C 6.8953991,261.46527 1.2631318,270.84571 0,281.56445 v 9.17969 c 1.2018629,10.13497 6.3086811,19.0731 13.791016,25.25 0.423405,0.34953 0.858635,0.68599 1.296875,1.01758 C 10.451591,315.04551 5.3524509,313.95898 0,313.95898 v 0.58399 c 6.7605799,0 13.103686,1.76789 18.607422,4.85351 -4.967999,2.78604 -10.6201705,4.4973 -16.6464845,4.80274 C 1.3113133,324.23214 0.65782665,324.25 0,324.25 v 0.58203 c 0.6676567,0 1.3308766,-0.0154 1.9902344,-0.0488 1.9780732,-0.10033 3.91785,-0.34963 5.8066406,-0.73632 2.527488,-0.51749 4.965315,-1.28121 7.287109,-2.26563 C 6.8952918,327.977 1.2630324,337.35734 0,348.07617 v 9.17969 c 1.201857,10.13497 6.3086829,19.07309 13.791016,25.25 0.421996,0.34837 0.856235,0.68313 1.292968,1.01367 C 10.448757,381.55445 5.3509047,380.4707 0,380.4707 v 0.58203 c 6.7605799,0 13.103686,1.7679 18.607422,4.85352 -4.967999,2.78603 -10.6201709,4.49925 -16.6464845,4.80469 -0.6496242,0.0329 -1.3031109,0.0488 -1.9609375,0.0488 v 0.58398 c 0.66765665,0 1.3308767,-0.0173 1.9902344,-0.0508 1.9780731,-0.10033 3.9178502,-0.34961 5.8066406,-0.73633 2.526037,-0.51718 4.962609,-1.28006 7.283203,-2.26367 C 6.8927785,394.48916 1.2623545,403.86963 0,414.58789 v 9.18359 c 1.203344,10.1318 6.3103378,19.06648 13.791016,25.24024 0.427321,0.35266 0.866164,0.69296 1.308593,1.02734 C 10.460095,448.06948 5.3570972,446.98047 0,446.98047 v 38.68945 h 38.400391 v -4.66015 c -1.284833,-10.69093 -6.923337,-20.04118 -15.09961,-26.22071 4.639521,1.96892 9.742513,3.0586 15.09961,3.0586 v -0.57618 c -6.760231,0 -13.104803,-1.76715 -18.609375,-4.85351 5.504769,-3.08562 11.848795,-4.85352 18.609375,-4.85352 v -0.58398 c -5.357097,0 -10.460089,1.08968 -15.09961,3.05859 0.44243,-0.33438 0.881273,-0.67468 1.308594,-1.02734 7.473666,-6.16797 12.581145,-15.09089 13.791016,-25.21094 v -9.22461 c -1.265596,-10.71313 -6.89592,-20.08944 -15.080079,-26.2832 4.634162,1.96423 9.730711,3.05078 15.080079,3.05078 v -0.58398 c -6.760582,0 -13.104605,-1.76882 -18.609375,-4.85547 5.504572,-3.08533 11.849144,-4.85157 18.609375,-4.85157 v -0.58203 c -0.667657,0 -1.330877,0.0154 -1.990235,0.0488 -4.625035,0.23449 -9.036881,1.28053 -13.09375,3 0.436734,-0.33054 0.870973,-0.6653 1.292969,-1.01367 7.482326,-6.1769 12.589146,-15.11503 13.791016,-25.25 v -9.18555 c -1.264678,-10.7165 -6.896709,-20.09435 -15.083985,-26.28906 4.635228,1.9653 9.73308,3.05078 15.083985,3.05078 v -0.582 c -6.761185,0 -13.105299,-1.7683 -18.609375,-4.85547 5.504572,-3.08532 11.849143,-4.85156 18.609375,-4.85156 v -0.58399 c -5.352451,0 -10.451591,1.08705 -15.087891,3.05274 0.43824,-0.33159 0.87347,-0.66805 1.296875,-1.01758 7.481913,-6.17656 12.588776,-15.11377 13.791016,-25.24805 v -9.18554 c -1.264379,-10.71712 -6.896387,-20.09607 -15.083985,-26.29102 4.635231,1.96531 9.733076,3.05274 15.083985,3.05274 v -0.58399 c -6.760232,0 -13.103883,-1.76715 -18.607422,-4.85351 5.503735,-3.08563 11.846842,-4.85352 18.607422,-4.85352 v -0.58203 c -5.350905,0 -10.448757,1.08422 -15.083985,3.04883 0.436734,-0.33055 0.870973,-0.66532 1.292969,-1.01367 7.482324,-6.1769 12.58915,-15.11506 13.791016,-25.25 v -9.19727 c -1.267454,-10.71153 -6.899748,-20.08494 -15.083985,-26.27734 4.635231,1.96461 9.733076,3.05078 15.083985,3.05078 v -0.58203 c -6.761281,0 -13.105244,-1.76926 -18.609375,-4.85547 5.503935,-3.08592 11.848442,-4.85157 18.609375,-4.85157 v -0.58398 c -5.349626,0 -10.445738,1.08706 -15.080079,3.05078 0.437115,-0.33074 0.868655,-0.66703 1.291016,-1.01562 7.468891,-6.16435 12.573359,-15.07801 13.789063,-25.1875 v -9.30469 c -1.277274,-10.6881 -6.899837,-20.04078 -15.06836,-26.22461 4.631112,1.96049 9.723387,3.04492 15.06836,3.04492 v -0.58398 c -6.76058,0 -13.103687,-1.7679 -18.607422,-4.85352 5.503538,-3.08636 11.847191,-4.85352 18.607422,-4.85351 v -0.58399 c -5.349626,0 -10.445738,1.08832 -15.080079,3.05274 0.437115,-0.33074 0.868655,-0.66704 1.291016,-1.01563 7.469039,-6.16446 12.57349,-15.08139 13.789063,-25.191406 V 81.96875 C 37.12298,71.279751 31.499759,61.92594 23.330078,55.742188 c 4.631759,1.961131 9.724408,3.046874 15.070313,3.046874 V 58.203125 C 31.640895,58.202783 25.29988,56.436589 19.796875,53.351562 20.471271,52.97346 21.15859,52.617013 21.857422,52.279297 h -1.480469 c -0.289874,0.183878 -0.572063,0.37849 -0.867187,0.554687 0.0025,-0.185305 0.01056,-0.369396 0.01367,-0.554687 h -0.65625 c 0.0051,0.185167 0.0229,0.366914 0.02539,0.552734 -0.293798,-0.175452 -0.574687,-0.369669 -0.863281,-0.552734 z m 2.964844,1.587891 C 30.512627,60.434788 37.918438,72.38743 38.099609,86.091797 27.097696,79.523498 19.692932,67.571269 19.509766,53.867188 Z m -0.617188,0.002 C 18.772319,62.875407 15.538849,71.131697 10.207031,77.59375 9.8192393,78.063585 9.421199,78.524077 9.0117188,78.974609 6.4860828,81.753923 3.5515946,84.153683 0.30859375,86.089844 0.49308722,72.389495 7.8944961,60.437461 18.892578,53.869141 Z m 0.310547,4.158203 c 0.04889,0.405233 0.09297,0.811607 0.154297,1.21289 1.272137,8.324772 5.198004,15.778536 10.886719,21.46875 1.261348,1.261682 2.612114,2.433109 4.037109,3.511719 -0.0073,-0.0031 -0.01423,-0.0067 -0.02148,-0.0098 -4.629223,-1.957904 -9.71734,-3.039063 -15.058594,-3.039063 -5.341254,0 -10.4300633,1.081159 -15.0585939,3.039063 -0.00725,0.0031 -0.014232,0.0067 -0.021484,0.0098 0.9304968,-0.704148 1.8311639,-1.446859 2.6933593,-2.230469 0.4580524,-0.416323 0.9061566,-0.843656 1.34375,-1.28125 C 14.123247,74.74415 18.139496,66.83979 19.203125,58.027344 Z m -0.002,23.726562 c 6.76058,0 13.102652,1.767894 18.607422,4.853516 -4.968932,2.786032 -10.620041,4.499248 -16.646485,4.804687 -0.649638,0.03293 -1.30311,0.04883 -1.960937,0.04883 -6.76058,0 -13.1036864,-1.768813 -18.607422,-4.855469 5.5035386,-3.085326 11.847191,-4.851561 18.607422,-4.851564 z m 18.898437,5.367188 c -0.181637,13.597739 -7.472908,25.477879 -18.335937,32.078129 -0.08342,0.0507 -0.170072,0.0964 -0.253906,0.14648 0.0064,-0.48397 0.01087,-0.96782 0.03516,-1.44726 0.663582,-13.09806 7.94026,-24.442469 18.554687,-30.777349 z m -37.79101525,0.002 C 10.922332,93.458146 18.199526,104.80251 18.863281,117.89844 c 0.0244,0.4814 0.03073,0.96716 0.03711,1.45312 C 7.8956385,112.78478 0.48972883,100.83047 0.30859375,87.123047 Z m 3.81250005,1.871094 c 4.6343402,1.964414 9.7304522,3.050781 15.0800782,3.050781 5.346517,0 10.439388,-1.084622 15.072266,-3.046875 -0.927849,0.702466 -1.825685,1.44308 -2.685547,2.224609 -6.412733,5.828534 -10.860476,13.7815 -12.230469,22.74609 -0.06232,0.40778 -0.108725,0.82056 -0.158203,1.23242 -0.04947,-0.41178 -0.09394,-0.82472 -0.15625,-1.23242 C 17.488955,103.79933 11.971686,94.935527 4.1210938,88.994141 Z M 18.898438,120.37891 c -0.182496,13.59669 -7.473572,25.47632 -18.335938,32.07617 -0.0834161,0.0507 -0.17007171,0.0964 -0.25390625,0.14648 C 0.49311551,138.89869 7.8975651,126.94658 18.898438,120.37891 Z m 0.611328,0 c 11.002788,6.56774 18.408672,18.52029 18.589843,32.22461 C 27.09822,146.03553 19.693612,134.08217 19.509766,120.37891 Z m -0.310547,4.13867 c 0.0495,0.41212 0.09585,0.82634 0.158203,1.23437 1.272137,8.32477 5.198004,15.77659 10.886719,21.4668 0.875186,0.87542 1.792645,1.70933 2.748047,2.49805 0.422294,0.34862 0.853961,0.68681 1.291015,1.01758 -4.63541,-1.9648 -9.730862,-3.05274 -15.082031,-3.05274 -5.351169,0 -10.4485743,1.08794 -15.0839845,3.05274 0.4370546,-0.33077 0.8687192,-0.66896 1.2910156,-1.01758 7.4698339,-6.16659 12.5762259,-15.08559 13.7910159,-25.19922 z m 0.002,23.74804 c 6.76058,0 13.102652,1.7679 18.607422,4.85352 -4.968932,2.78603 -10.620041,4.49925 -16.646485,4.80469 -0.649638,0.0329 -1.30311,0.0488 -1.960937,0.0488 -6.76058,0 -13.1036864,-1.76882 -18.607422,-4.85547 5.5035386,-3.08533 11.847191,-4.85156 18.607422,-4.85157 z m 18.898437,5.36719 c -0.181815,13.59752 -7.473046,25.47796 -18.335937,32.07813 -0.08342,0.0507 -0.170072,0.0964 -0.253906,0.14648 0.0064,-0.48397 0.01087,-0.96782 0.03516,-1.44726 0.663582,-13.09807 7.94026,-24.44247 18.554687,-30.77735 z m -37.79101525,0.004 C 10.92188,159.97202 18.19959,171.31466 18.863328,184.41025 c 0.0244,0.4814 0.03073,0.96716 0.03711,1.45312 -0.08637,-0.0515 -0.175793,-0.0982 -0.261719,-0.15039 C 7.7768494,179.11416 0.48898261,167.23579 0.30859375,153.63672 Z m 3.80859375,1.86523 c 4.6354102,1.96549 9.7328155,3.05274 15.0839845,3.05274 5.349626,0 10.445044,-1.08637 15.080078,-3.05078 -0.930628,0.7042 -1.831091,1.4448 -2.693359,2.22851 -6.412733,5.82853 -10.860476,13.78151 -12.230469,22.7461 -0.06235,0.40801 -0.108705,0.82227 -0.158203,1.23437 -0.04949,-0.41201 -0.09391,-0.82645 -0.15625,-1.23437 -1.55435,-10.17093 -7.072862,-19.03517 -14.9257815,-24.97657 z M 18.898438,186.88672 C 18.717292,200.48505 11.425909,212.36632 0.5625,218.9668 0.4790399,219.0175 0.39247272,219.0632 0.30859375,219.11328 0.49021911,205.40694 7.8952587,193.45355 18.898438,186.88672 Z m 0.611328,0.004 C 30.512304,193.45844 37.91862,205.411 38.099609,219.11523 27.098145,212.54727 19.693613,200.59395 19.509766,186.89062 Z m -0.310547,4.13868 c 0.04948,0.41188 0.09588,0.82461 0.158203,1.23242 1.272137,8.32477 5.198004,15.77854 10.886719,21.46875 1.263647,1.26398 2.617051,2.43735 4.044921,3.51758 -0.01049,-0.004 -0.02076,-0.009 -0.03125,-0.0137 -4.628528,-1.95791 -9.715386,-3.04102 -15.05664,-3.04102 -5.341254,0 -10.4300633,1.08311 -15.0585939,3.04102 -0.01049,0.004 -0.020765,0.009 -0.03125,0.0137 8.1707249,-6.18137 13.8039749,-15.53126 15.0878909,-26.21875 z m 0.002,23.74609 c 6.578266,0 12.765684,1.66712 18.166016,4.59961 0.149955,0.0814 0.294626,0.17053 0.443359,0.25391 -4.969345,2.7866 -10.621301,4.49921 -16.648438,4.80468 -0.649638,0.0329 -1.30311,0.0488 -1.960937,0.0488 -6.760933,0 -13.1054402,-1.76656 -18.60937512,-4.85351 5.50393492,-3.08642 11.84844212,-4.85352 18.60937512,-4.85352 z m 18.898437,5.36523 c -0.180465,13.59916 -7.472003,25.47929 -18.335937,32.08008 -0.08666,0.0526 -0.176564,0.10037 -0.263672,0.15235 0.0064,-0.48597 0.01271,-0.97173 0.03711,-1.45313 0.663915,-13.09906 7.944675,-24.4447 18.562499,-30.7793 z m -37.79101525,0.006 c 10.61043725,6.33574 17.88344625,17.6784 18.54687525,30.77344 0.02426,0.4788 0.02872,0.962 0.03516,1.44531 -0.08305,-0.0496 -0.169312,-0.0943 -0.251953,-0.14453 C 7.7784054,245.62024 0.49100607,233.74318 0.30859375,220.14648 Z m 3.81250005,1.86914 c 4.6343402,1.96442 9.7304522,3.05079 15.0800782,3.05079 5.349626,0 10.443784,-1.08637 15.078125,-3.05079 -0.929847,0.70372 -1.829814,1.44542 -2.691406,2.22852 -6.412733,5.82853 -10.860476,13.78151 -12.230469,22.74609 -0.06232,0.40778 -0.108725,0.82056 -0.158203,1.23243 -0.04947,-0.41178 -0.09394,-0.82473 -0.15625,-1.23243 C 17.488955,236.82105 11.971733,227.95725 4.1211408,222.01586 Z M 19.502,253.39868 c 10.61443,6.33488 17.891106,17.67928 18.554688,30.77734 0.02429,0.47945 0.02874,0.9633 0.03516,1.44727 -0.08384,-0.0501 -0.17049,-0.0958 -0.253906,-0.14649 -10.863025,-6.60024 -18.154295,-18.48039 -18.335938,-32.07812 z m -0.611328,0.004 C 18.706274,267.10104 11.30548,279.05238 0.30859375,285.62109 0.49103489,271.91937 7.8923034,259.96975 18.890625,253.40234 Z m 0.308594,4.13672 c 0.0495,0.41212 0.09585,0.82634 0.158203,1.23438 1.272137,8.32477 5.198004,15.77658 10.886719,21.46679 0.875186,0.87542 1.792645,1.70934 2.748047,2.49805 0.422294,0.34862 0.853961,0.68681 1.291015,1.01758 -4.63541,-1.96479 -9.730862,-3.05273 -15.082031,-3.05274 -5.351169,0 -10.4485743,1.08795 -15.0839845,3.05274 0.4370546,-0.33077 0.8687192,-0.66896 1.2910156,-1.01758 7.4698339,-6.16658 12.5762259,-15.08559 13.7910159,-25.19922 z m 0.002,23.74805 c 6.761184,0 13.103345,1.7674 18.607422,4.85351 -4.968932,2.78604 -10.620041,4.49925 -16.646485,4.80469 -0.649638,0.0329 -1.30311,0.0488 -1.960937,0.0488 -6.761185,0 -13.1052985,-1.7683 -18.60937512,-4.85547 C 6.0962755,283.05255 12.44094,281.28711 19.201172,281.28711 Z m 18.890625,5.36914 c -0.182416,13.59669 -7.46987,25.47633 -18.330078,32.07617 -0.0854,0.0519 -0.173928,0.0992 -0.259766,0.15039 0.0064,-0.48529 0.01079,-0.97043 0.03516,-1.45117 0.663756,-13.09592 7.940996,-24.43991 18.554688,-30.77539 z m -37.78320325,0.002 c 10.61036525,6.33575 17.88344825,17.67846 18.54687525,30.77344 0.02426,0.4788 0.02872,0.962 0.03516,1.44531 -0.08305,-0.0496 -0.169312,-0.0943 -0.251953,-0.14453 C 7.7788797,312.13212 0.49168039,300.25409 0.30859375,286.6582 Z m 3.80859375,1.86524 c 4.6354102,1.96548 9.7328155,3.05469 15.0839845,3.05468 5.351169,1e-5 10.446621,-1.0892 15.082031,-3.05468 -0.931409,0.70469 -1.832368,1.44809 -2.695312,2.23242 -6.412733,5.82853 -10.860476,13.77955 -12.230469,22.74414 -0.06235,0.40801 -0.108705,0.82228 -0.158203,1.23438 -0.04949,-0.41202 -0.09391,-0.82645 -0.15625,-1.23438 -1.55435,-10.17093 -7.072862,-19.03516 -14.9257815,-24.97656 z M 19.501953,319.9082 c 10.614884,6.33479 17.891089,17.67894 18.554688,30.77735 0.0243,0.47961 0.02874,0.96507 0.03516,1.44922 -0.08388,-0.0501 -0.170446,-0.0958 -0.253906,-0.14649 C 26.974474,345.38742 19.683099,333.50653 19.501953,319.9082 Z m -0.611328,0.004 C 18.706778,333.61487 11.302248,345.56875 0.30078125,352.13672 0.48177601,338.43219 7.8876991,326.47993 18.890625,319.91211 Z m 0.308594,4.13867 c 0.04948,0.41188 0.09588,0.82462 0.158203,1.23242 1.272137,8.32477 5.198004,15.77854 10.886719,21.46875 1.263647,1.26398 2.617051,2.43736 4.044921,3.51758 -0.01049,-0.004 -0.02076,-0.009 -0.03125,-0.0137 -4.628529,-1.9579 -9.715385,-3.04102 -15.05664,-3.04102 -5.341255,0 -10.4300628,1.08312 -15.0585939,3.04102 -0.01049,0.004 -0.020765,0.009 -0.03125,0.0137 8.1707249,-6.18137 13.8039749,-15.53126 15.0878909,-26.21875 z m 0.002,23.7461 c 6.578267,0 12.764721,1.66711 18.164062,4.5996 0.14993,0.0814 0.294655,0.17054 0.44336,0.25391 -4.968412,2.7866 -10.619478,4.49921 -16.646485,4.80469 -0.649624,0.0329 -1.30311,0.0508 -1.960937,0.0508 -6.760933,0 -13.1063596,-1.76851 -18.61132825,-4.85547 5.50492215,-3.08603 11.85039425,-4.85352 18.61132825,-4.85351 z m -18.90039075,5.36718 c 0.0856033,0.0511 0.17459878,0.0967 0.25976563,0.14844 10.47521812,6.3638 17.63668912,17.63641 18.29492212,30.62891 0.02429,0.47944 0.02874,0.96329 0.03516,1.44726 -0.08384,-0.0501 -0.17049,-0.0958 -0.253906,-0.14648 C 7.773249,378.64077 0.48191611,366.7624 0.30078125,353.16406 Z m 37.79101575,0.002 c -0.181744,13.59751 -7.469349,25.47601 -18.330078,32.07617 -0.0854,0.0519 -0.173928,0.0991 -0.259766,0.15039 0.0064,-0.48529 0.01079,-0.97043 0.03516,-1.45117 0.663758,-13.096 7.940924,-24.43993 18.554688,-30.77539 z m -33.9707032,1.87109 c 4.6343402,1.96441 9.7304522,3.05078 15.0800782,3.05078 5.346517,0 10.438128,-1.08462 15.070312,-3.04687 -0.928057,0.70246 -1.825471,1.4431 -2.685546,2.2246 -6.414342,5.82854 -10.863834,13.7815 -12.234376,22.7461 -0.06135,0.40126 -0.105386,0.80768 -0.154296,1.21289 -1.287909,-10.67449 -6.915805,-20.01167 -15.0761722,-26.1875 z M 19.502,386.4181 c 9.561979,5.70642 16.414163,15.47778 18.164063,26.93555 0.192687,1.26165 0.324801,2.5445 0.390625,3.84375 0.02429,0.47944 0.02874,0.96329 0.03516,1.44726 -0.08384,-0.0501 -0.17049,-0.0958 -0.253906,-0.14648 C 26.974396,411.89761 19.682973,400.01662 19.502004,386.4181 Z m -0.611328,0.006 C 18.70628,400.126 11.301836,412.079 0.30082825,418.64675 0.48194877,404.94252 7.8882949,392.99167 18.890625,386.42383 Z m 0.306641,4.1582 c 0.04891,0.40523 0.09295,0.81161 0.154296,1.21289 1.272647,8.32477 5.198459,15.77854 10.888672,21.46875 0.875418,0.87542 1.794372,1.70738 2.75,2.4961 0.421382,0.34778 0.852995,0.68365 1.289063,1.01367 -4.63415,-1.96353 -9.728773,-3.04883 -15.078125,-3.04883 -5.351169,0 -10.4485743,1.08794 -15.0839845,3.05273 0.4370546,-0.33076 0.8687192,-0.66896 1.2910156,-1.01757 7.4648579,-6.16248 12.5698869,-15.07245 13.7890629,-25.17774 z m 0.0039,23.71875 c 6.760231,0 13.10193,1.76716 18.605469,4.85352 -0.188882,0.11043 -0.381535,0.2146 -0.56836,0.32812 -4.828399,2.59979 -10.279978,4.1906 -16.076172,4.48438 -0.649624,0.0329 -1.30311,0.0488 -1.960937,0.0488 -6.763347,0 -13.1108567,-1.76841 -18.61718762,-4.85742 5.50633102,-3.089 11.85383962,-4.85742 18.61718762,-4.85742 z m 18.890625,5.36719 c -0.180754,13.73075 -7.61143,25.70525 -18.646485,32.26758 a 0.53822542,0.53822542 0 0 0 -0.234374,-0.0605 c 0.230416,-12.86884 6.822682,-24.18239 16.779296,-30.91016 0.486467,-0.32871 0.982257,-0.64665 1.484375,-0.95312 0.20767,-0.11157 0.411812,-0.22852 0.617188,-0.34375 z M 0.30859375,420.00391 C 11.056565,426.55585 18.29425,438.28327 18.587891,451.72266 18.081058,451.41365 17.580752,451.09336 17.089844,450.76172 7.1704784,444.06056 0.58838075,432.80955 0.30859375,420.00391 Z m 2.43359375,0.91992 c 4.9950564,2.35306 10.5725605,3.67578 16.4589845,3.67578 0.667657,0 1.330877,-0.0173 1.990234,-0.0508 1.978073,-0.10033 3.915897,-0.34962 5.804688,-0.73633 2.449077,-0.50143 4.811648,-1.23907 7.068359,-2.17969 -0.961964,0.72365 -1.889961,1.49051 -2.779297,2.29883 -6.412733,5.82853 -10.860477,13.7815 -12.230468,22.74609 -0.06132,0.40126 -0.105407,0.8077 -0.154297,1.21289 -1.344228,-11.13753 -7.417954,-20.8127 -16.1582035,-26.96677 z"
       transform="scale(0.26458333)"
       id="rect6616"
       inkscape:connector-curvature="0" />
  </g>
  <g
     inkscape:groupmode="layer"
     id="layer6"
     inkscape:label="Art 2"
     style="display:inline"
     sodipodi:insensitive="true">
    <path
       style="display:inline;fill:#616161;fill-opacity:1;stroke:none;stroke-width:0.26458332px;stroke-linecap:butt;stroke-linejoin:miter;stroke-opacity:1"
       d="M 5.0007285,119.74205 0,128.50017 h 10.011792 v -8.75812 l -0.4022108,-1.37682 c -1.8709566,0.10832 -3.2008127,0.61628 -4.6088527,1.37682 z"
       id="path5496"
       inkscape:connector-curvature="0"
       sodipodi:nodetypes="cccccc" />
    <path
       style="fill:#4b4b4b;fill-opacity:1;stroke:none;stroke-width:0.26458332px;stroke-linecap:butt;stroke-linejoin:miter;stroke-opacity:1"
       d="M 0,128.50016 9.8982998,122.78205 10.159999,128.5 Z"
       id="path5528"
       inkscape:connector-curvature="0"
       sodipodi:nodetypes="cccc" />
    <path
       sodipodi:nodetypes="cccccccc"
       inkscape:connector-curvature="0"
       id="path1185"
       d="M 0.46563648,23.019361 5.0806776,15.026325 9.8423037,23.273798 9.6862691,20.426915 6.1766932,13.559206 3.9803001,13.574059 0.46268375,20.468796 Z"
       style="display:inline;fill:#1c1c1c;fill-opacity:1;stroke:none;stroke-width:0.26458332px;stroke-linecap:butt;stroke-linejoin:miter;stroke-opacity:1" />
    <path
       style="display:inline;fill:#616161;fill-opacity:1;stroke:none;stroke-width:0.99999994px;stroke-linecap:butt;stroke-linejoin:miter;stroke-opacity:1"
       d="M 23.345703,1.1914062 15.042969,1.2480469 1.7480469,47.300781 1.7597656,83.5625 19.203125,53.351562 37.199219,84.523438 36.609375,47.142578 Z M 19.199219,25.650391 a 5.6943593,5.6943593 0 0 1 5.695312,5.695312 5.6943593,5.6943593 0 0 1 -5.695312,5.693359 5.6943593,5.6943593 0 0 1 -5.69336,-5.693359 5.6943593,5.6943593 0 0 1 5.69336,-5.695312 z"
       id="path5525"
       transform="scale(0.26458333)"
       inkscape:connector-curvature="0" />
    <path
       style="fill:#4b4b4b;fill-opacity:1;stroke:none;stroke-width:0.26458332px;stroke-linecap:butt;stroke-linejoin:miter;stroke-opacity:1"
       d="M 5.0268451e-4,22.914884 4.3327896,0.40452717 3.905523,0.38444086 0.41505544,11.867027 Z"
       id="path5546"
       inkscape:connector-curvature="0"
       sodipodi:nodetypes="ccccc" />
    <path
       style="display:inline;fill:#8c8c8c;fill-opacity:1;stroke:none;stroke-width:0.26458332px;stroke-linecap:butt;stroke-linejoin:miter;stroke-opacity:1"
       d="M 10.160673,22.915185 5.7921718,0.21559873 6.1534505,0.23478337 9.9945351,13.540882 Z"
       id="path5553"
       inkscape:connector-curvature="0"
       sodipodi:nodetypes="ccccc" />
    <path
       style="fill:#2f2f2f;fill-opacity:1;stroke:none;stroke-width:1.29999995;stroke-linecap:round;stroke-linejoin:round;stroke-miterlimit:4;stroke-dasharray:none;stroke-opacity:1;paint-order:stroke markers fill"
       d="M 0.41505544,11.867027 0.39173988,0.42903944 3.9803001,0.33015163 Z"
       id="path1181"
       inkscape:connector-curvature="0" />
    <path
       style="fill:#2f2f2f;fill-opacity:1;stroke:none;stroke-width:1.29999995;stroke-linecap:round;stroke-linejoin:round;stroke-miterlimit:4;stroke-dasharray:none;stroke-opacity:1;paint-order:stroke markers fill"
       d="M 6.1534505,0.23478337 9.9264088,0.26115076 9.994535,13.540882 Z"
       id="path1183"
       inkscape:connector-curvature="0" />
  </g>
  <g
     inkscape:groupmode="layer"
     id="layer2"
     inkscape:label="Frontpanel"
     sodipodi:insensitive="true"
     style="display:inline">
    <g
       id="g844"
       sodipodi:insensitive="true">
      <rect
         y="0.32348093"
         x="0.32348368"
         height="127.85303"
         width="9.513031"
         id="rect4925-2"
         style="fill:none;fill-opacity:1;stroke:#616161;stroke-width:0.64696735;stroke-miterlimit:4;stroke-dasharray:none;stroke-opacity:1;paint-order:normal" />
      <rect
         transform="rotate(90)"
         style="fill:#919191;fill-opacity:1;stroke:none;stroke-width:0.94095135;stroke-opacity:1"
         id="rect883"
         width="128.5"
         height="0.28699803"
         x="1.4516144e-16"
         y="-10.16" />
      <path
         sodipodi:nodetypes="ccccc"
         inkscape:connector-curvature="0"
         id="rect885"
         d="M -10.16,-128.5 H 0 v 0.287 h -9.8801858 z"
         style="fill:#4d4d4d;fill-opacity:1;stroke:none;stroke-width:0.26458332;stroke-opacity:1"
         transform="scale(-1)" />
      <rect
         y="-2.3841858e-07"
         x="-128.5"
         height="0.28699803"
         width="128.5"
         id="rect887"
         style="fill:#4d4d4d;fill-opacity:1;stroke:none;stroke-width:0.94095135;stroke-opacity:1"
         transform="rotate(-90)" />
      <path
         sodipodi:nodetypes="ccccc"
         inkscape:connector-curvature="0"
         id="rect881"
         d="M 0,0 H 10.16 V 0.28699803 H 0.27281885 Z"
         style="fill:#919191;fill-opacity:1;stroke:none;stroke-width:0.26458332;stroke-opacity:1" />
    </g>
  </g>
</svg>
